<svg version="1.1" id="Layer_1" xmlns="http://www.w3.org/2000/svg" xmlns:xlink="http://www.w3.org/1999/xlink" x="0px" y="0px"
	 width="100%" viewBox="0 0 64 64" enable-background="new 0 0 64 64" xml:space="preserve">

<path fill="#D0EEFF" opacity="1.000000" stroke="none" 
	d="
M65.000000,23.541931 
	C64.114151,24.714737 62.932697,25.254301 62.388996,26.171793 
	C57.858852,33.816441 48.372078,34.863991 40.471420,30.753494 
	C43.568752,26.137680 46.949402,21.987148 51.012165,16.999159 
	C47.790237,16.999159 45.991299,17.114241 44.212337,16.974655 
	C40.752529,16.703188 37.303925,16.288870 33.850681,15.933725 
	C33.891964,8.751960 40.648453,3.614661 44.850658,3.042388 
	C53.613522,1.849029 60.410110,5.231003 63.034424,11.764781 
	C63.311260,12.454020 63.942047,13.001093 64.704315,13.307061 
	C65.000000,16.361288 65.000000,19.722574 65.000000,23.541931 
z"/>
<path fill="#444C54" opacity="1.000000" stroke="none" 
	d="
M33.392059,15.957816 
	C37.303925,16.288870 40.752529,16.703188 44.212337,16.974655 
	C45.991299,17.114241 47.790237,16.999159 51.012165,16.999159 
	C46.949402,21.987148 43.568752,26.137680 40.100342,30.616713 
	C38.312881,33.148247 37.015404,35.921265 34.842915,37.454288 
	C26.077433,43.639706 29.621687,52.373791 29.068396,61.008163 
	C32.009808,61.008163 34.507698,60.667286 36.835659,61.148499 
	C38.043385,61.398144 38.950459,63.102253 39.996674,64.574646 
	C31.645769,65.000000 23.291536,65.000000 14.468653,65.000000 
	C13.588041,62.052895 14.631057,60.628506 17.829826,60.962017 
	C19.944221,61.182468 22.100235,61.003765 24.933008,61.003765 
	C24.933008,55.170193 26.054052,49.411148 24.581621,44.416695 
	C23.383497,40.352688 19.166782,37.127098 16.128834,33.670162 
	C12.408509,29.436739 8.470520,25.394640 4.748120,21.162962 
	C3.966571,20.274485 2.999566,18.376600 3.365907,17.896959 
	C4.110340,16.922291 5.697734,16.108019 6.953375,16.085087 
	C15.611134,15.926955 24.272934,15.989984 33.392059,15.957816 
M37.717247,27.847569 
	C39.878704,25.539066 42.040165,23.230562 45.017609,20.050560 
	C40.463799,20.050560 37.237713,20.050560 33.140076,19.668749 
	C25.227695,19.668749 17.315317,19.668749 8.280798,19.668749 
	C14.352558,26.761156 19.711100,33.101974 25.227030,39.302788 
	C25.650444,39.778774 27.658403,39.681438 28.125313,39.147305 
	C31.241758,35.582165 34.139473,31.825821 37.717247,27.847569 
z"/>
<path fill="#FEFEFE" opacity="1.000000" stroke="none" 
	d="
M37.108223,28.131573 
	C34.139473,31.825821 31.241758,35.582165 28.125313,39.147305 
	C27.658403,39.681438 25.650444,39.778774 25.227030,39.302788 
	C19.711100,33.101974 14.352558,26.761156 8.280798,19.668749 
	C17.315317,19.668749 25.227695,19.668749 33.622421,20.214119 
	C35.105915,23.216850 36.107067,25.674212 37.108223,28.131573 
z"/>
<path fill="#D1EEFE" opacity="1.000000" stroke="none" 
	d="
M37.412735,27.989571 
	C36.107067,25.674212 35.105915,23.216850 34.058197,20.405024 
	C37.237713,20.050560 40.463799,20.050560 45.017609,20.050560 
	C42.040165,23.230562 39.878704,25.539066 37.412735,27.989571 
z"/> 
</svg>