<svg version="1.1" id="Layer_1" xmlns="http://www.w3.org/2000/svg" xmlns:xlink="http://www.w3.org/1999/xlink" x="0px" y="0px"
	 width="100%" viewBox="0 0 64 76" enable-background="new 0 0 64 76" xml:space="preserve">
<path fill="#E7F6FE" opacity="1.000000" stroke="none" 
	d="
M46.001724,77.000000 
	C30.667974,77.000000 15.834689,77.000000 1.001054,77.000000 
	C1.000702,51.667217 1.000702,26.334436 1.000351,1.001240 
	C22.332712,1.000827 43.665424,1.000827 64.998604,1.000413 
	C64.999069,26.332628 64.999069,51.665257 64.999535,76.998947 
	C58.834064,77.000000 52.668129,77.000000 46.001724,77.000000 
M23.555407,59.186836 
	C28.905149,59.847553 34.254890,60.508274 39.365536,61.139465 
	C41.698574,53.959526 35.791260,57.282341 33.231770,55.108723 
	C34.282158,51.283211 35.234077,47.347229 37.202133,44.010601 
	C40.821693,37.874016 45.112637,32.137470 48.979225,26.140997 
	C51.218475,22.668268 50.511406,21.212551 46.535351,21.166174 
	C36.733761,21.051849 26.929949,21.129719 17.127031,21.126423 
	C13.282580,21.125130 12.196465,22.574078 14.479575,25.967405 
	C18.647486,32.162067 23.018284,38.241451 26.798975,44.666367 
	C28.661179,47.830997 29.394526,51.659893 30.638691,55.188202 
	C30.078707,55.127247 29.518723,55.066292 28.958738,55.005341 
	C27.138229,56.130154 25.317720,57.254967 23.555407,59.186836 
z"/>
<path fill="#354353" opacity="1.000000" stroke="none" 
	d="
M23.526310,58.783310 
	C25.317720,57.254967 27.138229,56.130154 28.958738,55.005341 
	C29.518723,55.066292 30.078707,55.127247 30.638691,55.188202 
	C29.394526,51.659893 28.661179,47.830997 26.798975,44.666367 
	C23.018284,38.241451 18.647486,32.162067 14.479575,25.967405 
	C12.196465,22.574078 13.282580,21.125130 17.127031,21.126423 
	C26.929949,21.129719 36.733761,21.051849 46.535351,21.166174 
	C50.511406,21.212551 51.218475,22.668268 48.979225,26.140997 
	C45.112637,32.137470 40.821693,37.874016 37.202133,44.010601 
	C35.234077,47.347229 34.282158,51.283211 33.231770,55.108723 
	C35.791260,57.282341 41.698574,53.959526 39.365536,61.139465 
	C34.254890,60.508274 28.905149,59.847553 23.526310,58.783310 
M19.981138,26.129908 
	C21.697983,27.294632 23.326174,29.263599 25.149254,29.464560 
	C29.590582,29.954132 34.147762,29.902617 38.605785,29.494917 
	C40.552498,29.316885 42.370686,27.733509 44.247242,26.788336 
	C44.020191,26.304556 43.793144,25.820774 43.566093,25.336992 
	C35.812866,25.336992 28.059639,25.336992 19.981138,26.129908 
M33.259796,42.074047 
	C34.968872,39.512768 36.677948,36.951485 38.812874,33.752007 
	C33.736874,33.752007 29.593340,33.752007 24.786545,33.752007 
	C26.966003,37.014713 28.728924,39.785854 30.671513,42.424732 
	C30.975422,42.837578 32.096447,42.648903 33.259796,42.074047 
z"/>
<path fill="#CBDAE3" opacity="1.000000" stroke="none" 
	d="
M20.143776,25.733450 
	C28.059639,25.336992 35.812866,25.336992 43.566093,25.336992 
	C43.793144,25.820774 44.020191,26.304556 44.247242,26.788336 
	C42.370686,27.733509 40.552498,29.316885 38.605785,29.494917 
	C34.147762,29.902617 29.590582,29.954132 25.149254,29.464560 
	C23.326174,29.263599 21.697983,27.294632 20.143776,25.733450 
z"/>
<path fill="#D3E2EA" opacity="1.000000" stroke="none" 
	d="
M33.049717,42.406212 
	C32.096447,42.648903 30.975422,42.837578 30.671513,42.424732 
	C28.728924,39.785854 26.966003,37.014713 24.786545,33.752007 
	C29.593340,33.752007 33.736874,33.752007 38.812874,33.752007 
	C36.677948,36.951485 34.968872,39.512768 33.049717,42.406212 
z"/>
</svg>